<svg id="Capa_1" enable-background="new 0 0 512 512" height="512" viewBox="0 0 512 512" width="512" xmlns="http://www.w3.org/2000/svg"><g><path d="m501.736 260.791-115.359-85.155c-11.693-23.202 8.629-55.16 33.275-43.978l90.357 120.809c4.079 5.47-2.782 12.372-8.273 8.324z" fill="#ff8f71"/><path d="m419.651 131.658c-17.688 4.656-33.357 21.902-33.275 43.978l-35.675-26.342 16.74-41.66 25.621-11.538z" fill="#ff6e42"/><path d="m384.46 119.43c-5.882 11.25-15.133 20.49-26.383 26.383-37.653 19.707-75.296 9.962-97.846-14.113-5.717-6.099-16.081-2.678-17.173 5.614-9.756 74.018 69.805 180.539 54.084 268.434-2.04 11.435-5.202 23.529-9.467 36.046-126.851-87.776-117.017-346.008-27.567-433.583 19.13-7.005 38.807-9.385 56.979-7.685 56.196 0 98.485 59.473 67.373 118.904z" fill="#f3f5fc"/><path d="m287.675 441.793c-5.47 15.988-12.754 32.677-21.891 49.541-6.892 12.723-20.212 20.666-34.686 20.666h-41.238s-84.464-18.162-115.524-43.978c-26.012-21.623 22.623-97.918 31.843-104.975 24.374-18.646 49.078-32.698 72.349-41.444-56.238-192.613 8.694-286.669 81.58-313.392-79.726 120.161-79.881 302.914 27.567 433.582z" fill="#d7ddf5"/><path d="m189.855 512c23.163-30.256 38.998-62.082 50.626-93.445 2.583-6.967-5.448-13.058-11.413-8.628-31.526 23.414-72.714 45.146-111.761 57.773-14.916 4.823-30.44-5.387-31.791-21.005-3.898-45.075 20.663-83.646 20.664-83.647-19.563 14.965-38.907 32.884-57.105 53.41-17.649 19.906-32.74 40.588-45.048 61.169-9.056 15.141 1.75 34.373 19.393 34.373z" fill="#525e77"/><ellipse cx="314.113" cy="95.786" fill="#ffa1ac" rx="24.082" ry="30.241" transform="matrix(.275 -.962 .962 .275 135.725 371.504)"/><g><path d="m337.432 85.839c-.683 0-1.375-.094-2.064-.291-3.983-1.138-6.289-5.289-5.151-9.271l3.396-11.887c1.138-3.983 5.292-6.288 9.271-5.151 3.983 1.138 6.289 5.289 5.151 9.271l-3.396 11.887c-.94 3.295-3.944 5.442-7.207 5.442z" fill="#3b4456"/></g></g></svg>